<?xml version="1.0" encoding="UTF-8" standalone="no"?>
<!-- Uploaded to: SVG Repo, www.svgrepo.com, Transformed by: SVG Repo Mixer Tools -->

<svg
   height="256"
   width="768"
   version="1.1"
   id="Layer_1"
   viewBox="0 0 1536.006 512.002"
   xml:space="preserve"
   fill="#3730a3"
   stroke="#3730a3"
   stroke-width="0.00512002"
   sodipodi:docname="header.svg"
   inkscape:version="1.3 (0e150ed6c4, 2023-07-21)"
   xmlns:inkscape="http://www.inkscape.org/namespaces/inkscape"
   xmlns:sodipodi="http://sodipodi.sourceforge.net/DTD/sodipodi-0.dtd"
   xmlns:xlink="http://www.w3.org/1999/xlink"
   xmlns="http://www.w3.org/2000/svg"
   xmlns:svg="http://www.w3.org/2000/svg"><defs
   id="defs8"><linearGradient
     id="swatch55"
     inkscape:swatch="solid"><stop
       style="stop-color:#ffffff;stop-opacity:1;"
       offset="0"
       id="stop55" /></linearGradient><clipPath
     clipPathUnits="userSpaceOnUse"
     id="clipPath15"><rect
       style="fill:none;stroke:#000000;stroke-linecap:butt;stroke-linejoin:bevel;paint-order:stroke markers fill;stop-color:#000000"
       id="rect15-7"
       width="45.034248"
       height="38.955639"
       x="262.48285"
       y="121.00073" /></clipPath><clipPath
     clipPathUnits="userSpaceOnUse"
     id="clipPath55"><path
       id="path55"
       style="stroke-width:0.1;stroke-linecap:square;paint-order:markers fill stroke;stop-color:#000000"
       d="m 1736.6147,-745.57287 h 1589.4765 v 72.46715 H 1736.6147 Z" /></clipPath><clipPath
     clipPathUnits="userSpaceOnUse"
     id="clipPath5"><rect
       style="fill:#000000;stroke:#000000;stroke-width:0;stroke-linejoin:bevel;paint-order:stroke markers fill;stop-color:#000000"
       id="rect5-4"
       width="20"
       height="200"
       x="530"
       y="595" /></clipPath><linearGradient
     id="swatch1"
     inkscape:swatch="solid"><stop
       style="stop-color:#3730e5;stop-opacity:1;"
       offset="0"
       id="stop1" /></linearGradient><linearGradient
     id="swatch9"
     inkscape:swatch="solid"><stop
       style="stop-color:#3730a3;stop-opacity:1;"
       offset="0"
       id="stop9" /></linearGradient><linearGradient
     id="swatch8"
     inkscape:swatch="solid"><stop
       style="stop-color:#55a6ff;stop-opacity:1;"
       offset="0"
       id="stop8" /></linearGradient><linearGradient
     id="swatch7"
     inkscape:swatch="solid"><stop
       style="stop-color:#55a6ff;stop-opacity:1;"
       offset="0"
       id="stop7" /></linearGradient><linearGradient
     inkscape:collect="always"
     xlink:href="#swatch1"
     id="linearGradient1"
     x1="443.88195"
     y1="256.001"
     x2="1437.6059"
     y2="256.001"
     gradientUnits="userSpaceOnUse" /></defs><sodipodi:namedview
   id="namedview8"
   pagecolor="#ffffff"
   bordercolor="#000000"
   borderopacity="0.25"
   inkscape:showpageshadow="2"
   inkscape:pageopacity="0.0"
   inkscape:pagecheckerboard="0"
   inkscape:deskcolor="#d1d1d1"
   inkscape:zoom="3.8606771"
   inkscape:cx="384.38853"
   inkscape:cy="127.69781"
   inkscape:window-width="3840"
   inkscape:window-height="2054"
   inkscape:window-x="-11"
   inkscape:window-y="-11"
   inkscape:window-maximized="1"
   inkscape:current-layer="g1"
   showgrid="true"><inkscape:grid
     id="grid1"
     units="px"
     originx="0"
     originy="0"
     spacingx="2.0000078"
     spacingy="2.0000078"
     empcolor="#0099e5"
     empopacity="0.30196078"
     color="#0099e5"
     opacity="0.14901961"
     empspacing="5"
     dotted="false"
     gridanglex="30"
     gridanglez="30"
     visible="true" /></sodipodi:namedview>&#10;&#10;<g
   id="SVGRepo_bgCarrier"
   stroke-width="0"
   style="display:inline;fill:#464fe5;fill-opacity:1" />&#10;&#10;<g
   id="SVGRepo_tracerCarrier"
   stroke-linecap="round"
   stroke-linejoin="round"
   stroke="#cccccc"
   stroke-width="1.024"
   style="display:inline" />&#10;&#10;&#10;&#10;<g
   id="g9"
   transform="translate(-73.40827)"><g
     id="g1"
     transform="translate(34.000164)"><rect
       style="stroke:none;stroke-width:4.00002;fill:#e0e7ff;fill-opacity:1"
       id="rect1"
       width="1537.5601"
       height="510.79324"
       x="39.408104"
       y="0.51804525" /><g
       id="SVGRepo_iconCarrier"
       transform="matrix(0.7750328,0,0,0.86916151,89.354342,33.493578)"
       style="display:inline"> <g
   id="g2"> <path
   style="fill:#818cf8"
   d="M 301.048,213.116 H 213.15 v 122.368 h 0.154 c -4.494,33.927 -33.588,60.198 -68.723,60.198 -11.606,0 -21.013,9.408 -21.013,21.013 0,11.605 9.408,21.013 21.013,21.013 28.144,0 53.878,-10.498 73.506,-27.778 -0.701,3.553 -1.446,7.006 -2.24,10.336 -6.132,25.764 -13.085,36.704 -16.08,39.666 -10.378,1.281 -18.413,10.13 -18.413,20.854 0,11.606 9.408,21.013 21.013,21.013 22.646,0 39.943,-20.347 51.409,-60.478 1.348,-4.718 2.592,-9.688 3.752,-14.836 1.161,5.148 2.404,10.118 3.752,14.836 11.467,40.132 28.763,60.479 51.41,60.479 11.606,0 21.013,-9.408 21.013,-21.013 0,-10.724 -8.035,-19.572 -18.413,-20.854 -2.996,-2.962 -9.947,-13.902 -16.08,-39.666 -0.792,-3.331 -1.539,-6.782 -2.24,-10.336 19.627,17.279 45.362,27.778 73.506,27.778 11.606,0 21.013,-9.408 21.013,-21.013 0,-11.606 -9.408,-21.013 -21.013,-21.013 -38.237,0 -69.345,-31.109 -69.345,-69.345 z"
   id="path1" /> <path
   style="fill:#818cf8"
   d="m 257.007,208.691 -80.19,-80.19 c -10.524,-10.524 -10.524,-27.587 0,-38.11 l 80.19,-80.19 80.19,80.19 c 10.524,10.524 10.524,27.587 0,38.11 z"
   id="path2" /> </g> <path
   style="fill:#4f46e5"
   d="m 318.143,200.355 c 0,41.437 -27.372,50.417 -61.135,50.417 -33.763,0 -61.135,-8.979 -61.135,-50.417 0,-139.889 61.135,-189.36 61.135,-189.36 0,0 61.135,49.471 61.135,189.36 z"
   id="path3" /> <path
   d="m 367.751,385.483 c -32.267,0 -58.518,-26.533 -58.519,-59.217 l -0.553,-80.43 c 11.532,-10.17 17.381,-25.43 17.381,-45.482 0,-16.625 -0.839,-32.004 -2.313,-46.235 l 18.211,-18.407 c 14.33,-14.484 14.33,-38.051 0,-52.535 l -79.34,-80.19 c -3.941,-3.983 -10.331,-3.983 -14.271,0 l -79.34,80.19 c -14.33,14.484 -14.33,38.051 0,52.535 l 18.211,18.407 c -1.474,14.231 -2.313,29.611 -2.313,46.235 0,19.603 5.591,34.625 16.617,44.79 L 202,335.539 c 0,0.078 0.002,0.156 0.004,0.234 -4.529,28.455 -29.074,49.71 -57.754,49.71 -17.029,0 -30.882,14.003 -30.882,31.214 0,17.211 13.854,31.214 30.882,31.214 19.771,0 39.074,-4.93 56.297,-14.174 -3.065,9.31 -5.811,14.468 -7.388,16.973 -13.163,3.686 -22.616,15.903 -22.616,30.081 0,17.211 13.854,31.214 30.882,31.214 23.494,0 41.803,-16.719 54.576,-49.76 12.772,33.041 31.081,49.759 54.575,49.759 17.029,0 30.882,-14.003 30.882,-31.214 0,-14.178 -9.452,-26.395 -22.615,-30.081 -1.58,-2.507 -4.325,-7.665 -7.389,-16.972 17.222,9.244 36.525,14.174 56.297,14.174 17.029,0 30.882,-14.003 30.882,-31.214 0,-17.211 -13.854,-31.214 -30.882,-31.214 z M 205.087,200.355 c 0,-69.377 15.485,-115.067 28.476,-141.179 8.213,-16.509 16.487,-27.475 21.941,-33.735 14.827,16.967 50.374,68.735 50.374,174.914 0,28.941 -14.129,40.217 -50.395,40.217 -36.266,0 -50.396,-11.276 -50.396,-40.217 z m 122.6,-79.066 -7.404,7.483 c -3.47,-20.163 -8.24,-37.532 -13.572,-52.37 l 20.976,21.2 c 6.462,6.531 6.462,17.156 0,23.687 z m -144.408,0 c -6.461,-6.531 -6.461,-17.156 0,-23.687 l 20.975,-21.2 c -5.332,14.837 -10.102,32.206 -13.572,52.369 z m 184.472,306.222 c -24.311,0 -47.77,-8.962 -66.057,-25.234 -3.246,-2.887 -7.95,-3.364 -11.697,-1.187 -3.748,2.179 -5.707,6.527 -4.87,10.815 0.725,3.716 1.498,7.324 2.3,10.724 7.209,30.616 15.43,41.359 18.631,44.557 1.586,1.584 3.645,2.593 5.857,2.869 5.338,0.666 9.363,5.28 9.363,10.732 0,5.963 -4.8,10.815 -10.7,10.815 -17.356,0 -31.203,-17.859 -41.16,-53.082 -1.217,-4.305 -2.419,-9.108 -3.571,-14.277 -1.037,-4.652 -5.126,-7.956 -9.844,-7.956 -4.718,0 -8.806,3.305 -9.844,7.956 -1.153,5.168 -2.354,9.972 -3.572,14.277 -9.957,35.223 -23.806,53.082 -41.161,53.082 -5.9,0 -10.7,-4.852 -10.7,-10.815 0,-5.451 4.025,-10.066 9.363,-10.732 2.212,-0.276 4.271,-1.285 5.857,-2.869 3.201,-3.198 11.422,-13.941 18.631,-44.556 0.802,-3.401 1.575,-7.01 2.3,-10.725 0.836,-4.288 -1.122,-8.637 -4.87,-10.815 -3.747,-2.179 -8.452,-1.7 -11.697,1.187 -18.287,16.273 -41.747,25.234 -66.057,25.234 -5.9,0 -10.7,-4.852 -10.7,-10.815 0,-5.963 4.8,-10.815 10.7,-10.815 39.307,0 72.424,-28.918 77.582,-68.287 0.139,-1.063 0.351,-2.703 0.34,-3.932 l -0.408,-77.065 c 9.197,2.959 20.253,4.373 33.719,4.373 13.164,0 24.015,-1.36 33.088,-4.185 l 0.479,69.551 c 0,43.861 35.305,79.545 78.7,79.545 5.9,0 10.7,4.852 10.7,10.815 -10e-4,5.964 -4.803,10.815 -10.702,10.815 z"
   id="path4" /> <path
   d="m 241.33,309.79 c -6.319,0 -11.46,5.196 -11.46,11.583 0,6.387 5.141,11.583 11.46,11.583 6.319,0 11.461,-5.197 11.461,-11.583 0,-6.386 -5.142,-11.583 -11.461,-11.583 z"
   id="path5" /> <path
   d="m 269.636,309.79 c -6.319,0 -11.46,5.196 -11.46,11.583 0,6.387 5.141,11.583 11.46,11.583 6.319,0 11.461,-5.197 11.461,-11.583 0,-6.386 -5.141,-11.583 -11.461,-11.583 z"
   id="path6" /> <path
   d="m 260.964,73.566 c 1.149,-2.184 1.857,-3.283 1.856,-3.283 0,0 0,0 0,0.001 3.111,-4.674 1.885,-11.011 -2.74,-14.155 -4.624,-3.143 -10.895,-1.905 -14.006,2.769 -0.2,0.3 -1.28,1.956 -2.928,5.086 -2.618,4.972 -0.752,11.149 4.168,13.794 1.51,0.812 3.132,1.197 4.731,1.197 3.613,0 7.106,-1.963 8.919,-5.409 z"
   id="path7" /> <path
   d="m 242.76,90.376 c -5.344,-1.602 -10.96,1.475 -12.546,6.874 -5.465,18.601 -9.393,39.656 -11.678,62.577 -0.559,5.604 3.484,10.605 9.028,11.17 0.344,0.035 0.685,0.052 1.024,0.052 5.118,0 9.504,-3.921 10.028,-9.178 2.157,-21.651 5.84,-41.439 10.945,-58.816 1.587,-5.399 -1.458,-11.076 -6.801,-12.679 z"
   id="path8" /> </g><text
       xml:space="preserve"
       style="font-size:192.001px;line-height:0;writing-mode:lr-tb;display:inline;fill:url(#linearGradient1);fill-opacity:1;stroke:none;stroke-width:4.00002;stroke-dasharray:none;stroke-opacity:1"
       x="433.41315"
       y="304.23563"
       id="text2"><tspan
         sodipodi:role="line"
         id="tspan2"
         style="font-style:normal;font-variant:normal;font-weight:normal;font-stretch:normal;font-size:192.001px;line-height:0;font-family:Calibri, Helvetica Neue, Helvetica, Arial, san-serif;-inkscape-font-specification:Calibri;writing-mode:lr-tb;fill:url(#linearGradient1);fill-opacity:1;stroke:none;stroke-width:4.00002;stroke-dasharray:none;stroke-opacity:1"
         x="433.41315"
         y="304.23563">ink! analyzer</tspan></text></g></g></svg>
